<svg xmlns="http://www.w3.org/2000/svg" xmlns:xlink="http://www.w3.org/1999/xlink" viewBox="0,0,256,256" width="24px" height="24px" fill-rule="nonzero"><g fill="#d90909" fill-rule="nonzero" stroke="none" stroke-width="1" stroke-linecap="butt" stroke-linejoin="miter" stroke-miterlimit="10" stroke-dasharray="" stroke-dashoffset="0" font-family="none" font-weight="none" font-size="none" text-anchor="none" style="mix-blend-mode: normal"><g transform="scale(10.66667,10.66667)"><path d="M10,2l-1,1h-4c-0.552,0 -1,0.448 -1,1c0,0.552 0.448,1 1,1h14c0.552,0 1,-0.448 1,-1c0,-0.552 -0.448,-1 -1,-1h-4l-1,-1zM5,7v13c0,1.1 0.9,2 2,2h7.2207l2.00977,-2h-1.23047c-0.552,0 -1,-0.448 -1,-1v-9c0,-0.414 0.25245,-0.77 0.61133,-0.92187c0.11962,-0.05063 0.25067,-0.07812 0.38867,-0.07812c0.552,0 1,0.448 1,1v5.7793c0.552,-0.497 1.252,-0.7793 2,-0.7793c0.1735,0 0.34484,0.01745 0.51172,0.04883c0.16688,0.03137 0.32928,0.07631 0.48828,0.13281v-8.18164zM9,9c0.552,0 1,0.448 1,1v9c0,0.552 -0.448,1 -1,1c-0.138,0 -0.26905,-0.0275 -0.38867,-0.07812c-0.35887,-0.15188 -0.61133,-0.50787 -0.61133,-0.92187v-9c0,-0.552 0.448,-1 1,-1zM18,17c-0.25587,0 -0.51153,0.09747 -0.70703,0.29297c-0.391,0.39 -0.391,1.02406 0,1.41406l1.79297,1.79297l-1.79297,1.79297c-0.391,0.39 -0.391,1.02406 0,1.41406c0.39,0.391 1.02306,0.391 1.41406,0l1.79297,-1.79297l1.79297,1.79297c0.39,0.391 1.02306,0.391 1.41406,0c0.391,-0.39 0.391,-1.02306 0,-1.41406l-1.79297,-1.79297l1.79297,-1.79297c0.391,-0.39 0.391,-1.02306 0,-1.41406c-0.39,-0.391 -1.02306,-0.391 -1.41406,0l-1.79297,1.79297l-1.79297,-1.79297c-0.195,-0.1955 -0.45116,-0.29297 -0.70703,-0.29297z"></path></g></g></svg>