<svg xmlns="http://www.w3.org/2000/svg"  viewBox="0 0 512 512" width="64px" height="64px"><path d="M461.6,230.932a66.084,66.084,0,0,0-59.828-65.7v-34.4h69.079a6,6,0,0,0,6-6V85.243A43.589,43.589,0,0,0,433.313,41.7c-.5,0-.993.021-1.487.038a5.962,5.962,0,0,0-.658-.038H141.954a49.063,49.063,0,0,0-48.9,48.42l-2.18,266.732H36.4a6,6,0,0,0-6,6v39.87c0,35.85,27.513,65.254,62.127,67.427a6.037,6.037,0,0,0,1.291.143H331.8a5.966,5.966,0,0,0,.893-.074c.945.041,1.892.074,2.847.074,34.454,0,63.465-27.425,66.046-62.436.011-.147.017-.294.017-.441V403.27a85.925,85.925,0,0,0,60-140.829Zm-12,0v19.705q-2.5-2.021-5.144-3.852V230.932a48.857,48.857,0,1,0-97.714,0v15.853q-2.645,1.833-5.142,3.852V230.932a54,54,0,0,1,108,0Zm-17.144,0v8.886a85.844,85.844,0,0,0-73.714,0v-8.886a36.857,36.857,0,1,1,73.714,0ZM433.313,53.7a31.576,31.576,0,0,1,31.54,31.539v33.59H401.774V85.243A31.575,31.575,0,0,1,433.313,53.7ZM96.634,458.3c-29.9,0-54.236-24.929-54.236-55.57v-33.87h226.87v33.87a67.909,67.909,0,0,0,28.624,55.57Zm292.968-51.1c-2.225,28.673-25.931,51.1-54.1,51.1-29.9,0-54.235-24.929-54.235-55.57v-39.87a6,6,0,0,0-6-6H102.874l2.18-266.623a37.021,37.021,0,0,1,36.9-36.529H403.345a43.409,43.409,0,0,0-13.571,31.539V165.2A66.08,66.08,0,0,0,329.6,230.932v31.509a85.925,85.925,0,0,0,60,140.829Zm80-89.689a74,74,0,1,1-74-74A74.084,74.084,0,0,1,469.6,317.5Z"/><path d="M143.513,154.006h50.135a6,6,0,0,0,0-12H143.513a6,6,0,0,0,0,12Z"/><path d="M242.328,218.651a6,6,0,0,0,6,6h67.644a6,6,0,0,0,0-12H248.328A6,6,0,0,0,242.328,218.651Z"/><path d="M228.954,218.651a6,6,0,0,0-6-6H179.579a6,6,0,0,0,0,12h43.375A6,6,0,0,0,228.954,218.651Z"/><path d="M143.513,224.651h10.275a6,6,0,0,0,0-12H143.513a6,6,0,1,0,0,12Z"/><path d="M303.722,283.3H194.168a6,6,0,0,0,0,12H303.722a6,6,0,0,0,0-12Z"/><path d="M168.774,283.3H143.513a6,6,0,0,0,0,12h25.261a6,6,0,0,0,0-12Z"/><path d="M328.567,154.006h14.4a6,6,0,0,0,0-12h-14.4a6,6,0,0,0,0,12Z"/><path d="M218.591,154.006h84.691a6,6,0,0,0,0-12H218.591a6,6,0,0,0,0,12Z"/><path d="M395.6,311a15.991,15.991,0,0,0-5.828,30.885v16.124a6,6,0,0,0,12,0v-16.25A16,16,0,0,0,395.6,311Zm0,20a4,4,0,1,1,4-4A4,4,0,0,1,395.6,331Z"/></svg>