<svg xmlns="http://www.w3.org/2000/svg" xmlns:xlink="http://www.w3.org/1999/xlink" viewBox="0 0 512 512" width="64px" height="64px"><defs><style>.cls-1{fill:url(#linear-gradient);}.cls-2{fill:url(#linear-gradient-2);}.cls-3{fill:url(#linear-gradient-3);}.cls-4{fill:url(#linear-gradient-4);}.cls-5{fill:url(#linear-gradient-5);}.cls-6{fill:url(#linear-gradient-6);}.cls-7{fill:url(#linear-gradient-7);}.cls-8{fill:url(#linear-gradient-8);}.cls-9{fill:url(#linear-gradient-9);}.cls-10{fill:url(#linear-gradient-10);}.cls-11{fill:url(#linear-gradient-11);}.cls-12{fill:url(#linear-gradient-12);}.cls-13{fill:url(#linear-gradient-13);}.cls-14{fill:url(#linear-gradient-14);}</style><linearGradient id="linear-gradient" x1="531.22" y1="448.84" x2="245.65" y2="-72.08" gradientUnits="userSpaceOnUse"><stop offset="0" stop-color="#72c493"/><stop offset="0.25" stop-color="#68af98"/><stop offset="0.77" stop-color="#4d79a5"/><stop offset="1" stop-color="#415fab"/></linearGradient><linearGradient id="linear-gradient-2" x1="448.61" y1="494.12" x2="163.05" y2="-26.79" xlink:href="#linear-gradient"/><linearGradient id="linear-gradient-3" x1="434.46" y1="501.88" x2="148.9" y2="-19.03" xlink:href="#linear-gradient"/><linearGradient id="linear-gradient-4" x1="321.16" y1="563.99" x2="35.6" y2="43.08" xlink:href="#linear-gradient"/><linearGradient id="linear-gradient-5" x1="401.71" y1="519.83" x2="116.15" y2="-1.08" xlink:href="#linear-gradient"/><linearGradient id="linear-gradient-6" x1="480.45" y1="476.67" x2="194.89" y2="-44.25" xlink:href="#linear-gradient"/><linearGradient id="linear-gradient-7" x1="294.75" y1="578.47" x2="9.19" y2="57.55" xlink:href="#linear-gradient"/><linearGradient id="linear-gradient-8" x1="356.22" y1="544.78" x2="70.65" y2="23.86" xlink:href="#linear-gradient"/><linearGradient id="linear-gradient-9" x1="430.96" y1="503.8" x2="145.4" y2="-17.12" xlink:href="#linear-gradient"/><linearGradient id="linear-gradient-10" x1="291.57" y1="580.26" x2="6.01" y2="59.34" xlink:href="#linear-gradient"/><linearGradient id="linear-gradient-11" x1="372.96" y1="535.6" x2="87.39" y2="14.68" xlink:href="#linear-gradient"/><linearGradient id="linear-gradient-12" x1="353.84" y1="546.08" x2="68.27" y2="25.16" xlink:href="#linear-gradient"/><linearGradient id="linear-gradient-13" x1="197.07" y1="632.02" x2="-88.49" y2="111.1" xlink:href="#linear-gradient"/><linearGradient id="linear-gradient-14" x1="466.34" y1="484.41" x2="180.78" y2="-36.51" xlink:href="#linear-gradient"/></defs><title>32 Lock</title><g id="_32_Lock" data-name="32 Lock"><path class="cls-1" d="M316.5,152.08H428.09c.23,0,.48,0,.71,0a6,6,0,0,0,3.87-10.25L296.31,6.74A6,6,0,0,0,286.08,11V121.67A30.45,30.45,0,0,0,316.5,152.08ZM298.08,25.39,413.87,140.08H316.5a18.43,18.43,0,0,1-18.42-18.41Z"/><path class="cls-2" d="M497,347.29a97.54,97.54,0,0,0-195.08,0v42.32a30.58,30.58,0,0,0-1.4,9.17v77.7A30.55,30.55,0,0,0,331.08,507H467.93a30.55,30.55,0,0,0,30.52-30.52v-77.7a30.53,30.53,0,0,0-1.41-9.17Zm-183.08,0a85.54,85.54,0,0,1,171.08,0v26.23a30.35,30.35,0,0,0-17.11-5.27h-3.39v-21a65,65,0,1,0-130.08,0v21h-3.38A30.38,30.38,0,0,0,314,373.52Zm138.58,0v21H346.46v-21a53,53,0,1,1,106.08,0Zm33.91,129.19A18.54,18.54,0,0,1,467.93,495H331.08a18.54,18.54,0,0,1-18.52-18.52v-77.7a18.45,18.45,0,0,1,.23-2.8,6.1,6.1,0,0,0,.86-1.64,20.74,20.74,0,0,1,19.61-14.09H465.75a20.77,20.77,0,0,1,19.61,14.08,6,6,0,0,0,.85,1.6,19.11,19.11,0,0,1,.24,2.85Z"/><path class="cls-3" d="M399.23,409.51a28.12,28.12,0,1,0,28.12,28.12A28.15,28.15,0,0,0,399.23,409.51Zm0,44.23a16.12,16.12,0,1,1,16.12-16.11A16.13,16.13,0,0,1,399.23,453.74Z"/><path class="cls-4" d="M101.31,203.15h37.5a6,6,0,0,0,0-12h-37.5a6,6,0,0,0,0,12Z"/><path class="cls-5" d="M180.81,203.15h88a6,6,0,0,0,0-12h-88a6,6,0,0,0,0,12Z"/><path class="cls-6" d="M352.69,197.15a6,6,0,0,0-6-6H307.76a6,6,0,0,0,0,12h38.93A6,6,0,0,0,352.69,197.15Z"/><path class="cls-7" d="M101.31,262h33.33a6,6,0,0,0,0-12H101.31a6,6,0,0,0,0,12Z"/><path class="cls-8" d="M172,262h51.89a6,6,0,1,0,0-12H172a6,6,0,0,0,0,12Z"/><path class="cls-9" d="M270.86,250a6,6,0,0,0,0,12h48.52a6,6,0,0,0,0-12Z"/><path class="cls-10" d="M190.83,308.85H101.31a6,6,0,0,0,0,12h89.52a6,6,0,1,0,0-12Z"/><path class="cls-11" d="M280.34,308.85h-56.8a6,6,0,1,0,0,12h56.8a6,6,0,1,0,0-12Z"/><path class="cls-12" d="M428.08,140.08H316.5a18.44,18.44,0,0,1-18.42-18.42V11a6,6,0,0,0-6-6H53.55a40.05,40.05,0,0,0-40,40V284.79a6,6,0,0,0,12,0V45a28,28,0,0,1,28-28H286.08V121.66a30.46,30.46,0,0,0,30.42,30.42H422.44V252.46A97.67,97.67,0,0,0,302,347.29v42.32a30.64,30.64,0,0,0-1.41,9.17v77.7A30.34,30.34,0,0,0,306.83,495H53.55c-15.44,0-28-15.58-28-34.74V331.59a6,6,0,0,0-12,0V460.26c0,25.77,18,46.74,40,46.74H331.08a6,6,0,0,0,0-12,18.55,18.55,0,0,1-18.53-18.52v-77.7a18.5,18.5,0,0,1,1.07-6.2,5.92,5.92,0,0,0,.34-2V347.29A85.67,85.67,0,0,1,426.55,266.1a6,6,0,0,0,7.89-5.69V146.07a6,6,0,0,0-6.36-6Z"/><path class="cls-13" d="M19.55,318.69a6,6,0,0,0,6-6v-9a6,6,0,0,0-12,0v9A6,6,0,0,0,19.55,318.69Z"/><path class="cls-14" d="M431.39,290.58a65.07,65.07,0,0,0-96.93,56.71v27a6,6,0,0,0,6,6h88a6,6,0,0,0,6-6V295.8A6,6,0,0,0,431.39,290.58Zm-8.95,77.67h-76v-21a53.09,53.09,0,0,1,76-47.85Z"/></g></svg>