<svg xmlns="http://www.w3.org/2000/svg" xmlns:xlink="http://www.w3.org/1999/xlink" viewBox="0,0,256,256" width="20px" height="20px" fill-rule="nonzero"><defs><linearGradient x1="-308.751" y1="-346.874" x2="36.906" y2="49.567" gradientUnits="userSpaceOnUse" id="color-1"><stop offset="0" stop-color="#e7c92b"></stop><stop offset="1" stop-color="#feb705"></stop></linearGradient><radialGradient cx="18.189" cy="16.781" r="22.363" gradientUnits="userSpaceOnUse" id="color-2"><stop offset="0" stop-color="#4b4b4b"></stop><stop offset="0.531" stop-color="#393939"></stop><stop offset="1" stop-color="#252525"></stop></radialGradient></defs><g fill="none" fill-rule="nonzero" stroke="none" stroke-width="1" stroke-linecap="butt" stroke-linejoin="miter" stroke-miterlimit="10" stroke-dasharray="" stroke-dashoffset="0" font-family="none" font-weight="none" font-size="none" text-anchor="none" style="mix-blend-mode: normal"><g transform="scale(5.33333,5.33333)"><path d="M44.634,37.846l-18.874,-30.059c0,0 -0.508,-1.05 -1.76,-1.05c-1.252,0 -1.76,1.05 -1.76,1.05l-18.874,30.059c0,0 -0.366,0.491 -0.366,1.154c0,1.105 0.895,2 2,2h38c1.105,0 2,-0.895 2,-2c0,-0.663 -0.366,-1.154 -0.366,-1.154z" fill="url(#color-1)"></path><path d="M24.014,37c-0.732,0 -1.336,-0.222 -1.812,-0.666c-0.476,-0.444 -0.714,-0.981 -0.714,-1.613c0,-0.659 0.24,-1.199 0.721,-1.62c0.48,-0.421 1.082,-0.631 1.805,-0.631c0.732,0 1.332,0.213 1.798,0.638c0.467,0.426 0.7,0.963 0.7,1.613c0,0.659 -0.231,1.203 -0.693,1.633c-0.462,0.43 -1.064,0.646 -1.805,0.646zM26.236,17.721l-0.481,12.175c-0.015,0.372 -0.321,0.666 -0.693,0.666h-2.179c-0.373,0 -0.679,-0.295 -0.693,-0.668l-0.455,-12.174c-0.015,-0.393 0.3,-0.72 0.693,-0.72h3.116c0.393,0 0.708,0.327 0.692,0.721z" fill="url(#color-2)"></path></g></g></svg>